<svg width="121" height="67" viewBox="0 0 121 67" fill="none" xmlns="http://www.w3.org/2000/svg">
<g clip-path="url(#clip0_29_31)">
<path d="M25.4168 35.262L39.2189 43.6714L12.921 40.7856L0 33.1331L25.4168 35.262ZM39.6573 41.8169L39.2544 43.5784L25.5187 34.8503L25.7843 33.3942L27.2234 34.2661L38.6167 1.42517L37.957 40.7812L39.6573 41.8125V41.8169ZM28.388 34.9787L36.6286 39.9801L37.1378 9.75934L28.388 34.9787ZM25.4522 33.3898L25.5187 34.8503L13.315 33.943C13.2929 33.943 13.2708 33.9519 13.2486 33.9519H13.2265C13.1734 33.9519 13.1202 33.9386 13.0715 33.9253L0 32.9516L0.363097 31.5087L1.97932 31.6282L14.918 0L13.935 32.5267L25.4478 33.3898H25.4522ZM3.38301 31.7344L12.6066 32.4249L13.3638 7.33831L3.37858 31.7344H3.38301ZM61.9745 19.6957C63.1612 19.2443 64.0911 18.5848 64.7598 17.7217C65.4328 16.8586 65.7693 15.8362 65.7693 14.6501C65.7693 13.5878 65.5435 12.7026 65.0874 11.9945C64.6313 11.2863 63.9184 10.7109 62.9398 10.2683C61.9612 9.82573 60.6815 9.45394 59.0919 9.1574C58.131 8.94938 57.3782 8.74578 56.8292 8.55546C56.2801 8.36515 55.886 8.13499 55.6513 7.87386C55.4166 7.61273 55.2971 7.30733 55.2971 6.95768C55.2971 6.4 55.5096 5.98396 55.9391 5.71397C56.3642 5.44398 56.962 5.30678 57.7325 5.30678C58.4498 5.30678 59.0299 5.45284 59.4727 5.74053C59.9155 6.02822 60.19 6.36459 60.2963 6.74965C60.4026 6.90456 60.5221 7.01964 60.6638 7.09046C60.8011 7.16127 60.9694 7.19668 61.1598 7.19668H64.6136C64.7686 7.19668 64.9014 7.13914 65.0077 7.02849C65.114 6.91342 65.1627 6.78949 65.1627 6.64786C65.145 6.09018 64.9767 5.51923 64.6535 4.93499C64.3302 4.35076 63.8564 3.79751 63.2277 3.27524C62.5989 2.75297 61.8284 2.3325 60.9118 2.01826C59.9952 1.70401 58.9369 1.5491 57.7325 1.5491C56.2491 1.5491 54.9694 1.78368 53.8845 2.25726C52.8041 2.72642 51.9628 3.38147 51.3606 4.21798C50.7584 5.05449 50.4573 6.00609 50.4573 7.06833C50.4573 8.13057 50.7008 9.05118 51.1923 9.77704C51.6794 10.4985 52.3923 11.0827 53.3266 11.5297C54.2609 11.9768 55.3901 12.3353 56.714 12.6141C57.7413 12.8221 58.565 13.0302 59.1849 13.2293C59.8048 13.4285 60.252 13.6586 60.531 13.9109C60.81 14.1632 60.9517 14.4819 60.9517 14.8669C60.9517 15.4069 60.6948 15.8362 60.1812 16.1505C59.6675 16.4647 58.9015 16.6196 57.8919 16.6196C57.2808 16.6196 56.7716 16.5444 56.3598 16.3983C55.948 16.2523 55.6203 16.0531 55.3635 15.8097C55.1067 15.5663 54.9163 15.314 54.7746 15.0528C54.6683 14.9112 54.5532 14.8006 54.4203 14.712C54.2875 14.6235 54.1015 14.5837 53.858 14.5837H50.5591C50.4041 14.5837 50.2669 14.6412 50.1517 14.7519C50.0366 14.8669 49.9835 14.9909 49.9835 15.1325C50.0189 16.0398 50.3333 16.8941 50.9266 17.6952C51.52 18.4963 52.3923 19.1469 53.5436 19.6426C54.6949 20.1383 56.1428 20.3862 57.8875 20.3862C59.424 20.3862 60.7834 20.1604 61.9701 19.7046L61.9745 19.6957ZM77.0076 19.6692C78.0084 19.2 78.7789 18.5228 79.3102 17.642C79.8416 16.7613 80.1427 15.7123 80.2135 14.4907C80.2312 14.1411 80.2401 13.7472 80.2401 13.3001C80.2401 12.8531 80.2312 12.4681 80.2135 12.1361C80.1427 10.8968 79.8283 9.84343 79.2704 8.97151C78.7124 8.09959 77.9331 7.42683 76.9279 6.95768C75.9228 6.48852 74.7095 6.24952 73.2793 6.24952C71.849 6.24952 70.6579 6.48409 69.6571 6.95768C68.652 7.42683 67.8727 8.09959 67.3147 8.97151C66.7568 9.84343 66.4424 10.8968 66.3716 12.1361C66.3538 12.4681 66.345 12.8531 66.345 13.3001C66.345 13.7472 66.3538 14.1411 66.3716 14.4907C66.4424 15.7123 66.7435 16.7613 67.2749 17.642C67.8062 18.5228 68.5723 19.2 69.5774 19.6692C70.5826 20.1383 71.8136 20.3773 73.2793 20.3773C74.7449 20.3773 76.0025 20.1427 77.0076 19.6692ZM71.5789 16.478C71.2114 16.0089 71.0121 15.3007 70.9767 14.358C70.959 14.0968 70.9501 13.7472 70.9501 13.3134C70.9501 12.8797 70.959 12.53 70.9767 12.2689C71.0121 11.3438 71.2114 10.6445 71.5789 10.1621C71.9464 9.68409 72.5132 9.44509 73.2793 9.44509C74.0453 9.44509 74.6342 9.68409 74.9929 10.1621C75.3516 10.6401 75.5553 11.3438 75.6084 12.2689C75.6261 12.53 75.635 12.8797 75.635 13.3134C75.635 13.7472 75.6261 14.0968 75.6084 14.358C75.5553 15.3007 75.3516 16.0044 74.9929 16.478C74.6342 16.9516 74.063 17.1862 73.2793 17.1862C72.4955 17.1862 71.9464 16.9516 71.5789 16.478ZM90.4201 20.0365C91.1684 19.8108 91.8105 19.5098 92.3419 19.1336C92.8732 18.7574 93.3072 18.3546 93.6393 17.9165C93.9714 17.4827 94.2149 17.0667 94.3699 16.6728C94.5249 16.2788 94.6134 15.938 94.6312 15.6415C94.6489 15.4689 94.5869 15.314 94.4496 15.1856C94.3079 15.0528 94.1529 14.9909 93.9802 14.9909H90.6592C90.4688 14.9909 90.3183 15.0351 90.2164 15.1192C90.1102 15.2077 90.0172 15.3361 89.9286 15.5131C89.7382 16.0531 89.4858 16.4382 89.1714 16.6639C88.857 16.8896 88.4319 17.0047 87.8873 17.0047C87.1877 17.0047 86.6519 16.7878 86.2799 16.3497C85.9035 15.9159 85.6998 15.2166 85.6644 14.2562C85.6467 13.7162 85.6467 13.0965 85.6644 12.3972C85.6998 11.4545 85.9035 10.7596 86.2799 10.3037C86.6563 9.85228 87.1921 9.62213 87.8873 9.62213C88.3921 9.62213 88.8083 9.73721 89.1316 9.96293C89.4548 10.1887 89.7205 10.5737 89.9286 11.1137C90.0172 11.2863 90.1102 11.4191 90.2164 11.5076C90.3227 11.5961 90.4688 11.636 90.6592 11.636H93.9802C94.1529 11.636 94.3123 11.5696 94.4496 11.4412C94.5869 11.3129 94.6489 11.158 94.6312 10.9853C94.6134 10.5826 94.4717 10.1178 94.2016 9.58672C93.9315 9.0556 93.5242 8.53776 92.9839 8.02877C92.4437 7.5242 91.7441 7.09931 90.8895 6.75851C90.0349 6.4177 89.0076 6.24952 87.8031 6.24952C86.5102 6.24952 85.3633 6.48409 84.3626 6.95768C83.3619 7.43126 82.5692 8.11286 81.9936 9.01134C81.418 9.90982 81.1036 10.9942 81.0504 12.2689C81.0327 12.5477 81.0239 12.9018 81.0239 13.3267C81.0239 13.7516 81.0327 14.1057 81.0504 14.3845C81.1036 15.6415 81.4224 16.717 82.0069 17.6155C82.5914 18.514 83.3796 19.2 84.3759 19.6692C85.3722 20.1383 86.5146 20.3773 87.8031 20.3773C88.7995 20.3773 89.6673 20.2622 90.4201 20.0365ZM99.4754 4.55436C99.6658 4.55436 99.8297 4.49239 99.9581 4.37289C100.091 4.24896 100.153 4.09405 100.153 3.90373V1.57123C100.153 1.38091 100.086 1.21715 99.9581 1.0888C99.8252 0.956017 99.6658 0.894053 99.4754 0.894053H96.3625C96.1721 0.894053 96.0127 0.960443 95.8931 1.0888C95.7692 1.21715 95.7116 1.38091 95.7116 1.57123V3.89931C95.7116 4.08963 95.7736 4.24896 95.8931 4.36846C96.0171 4.49239 96.1721 4.54993 96.3625 4.54993H99.4754V4.55436ZM99.4754 20.1162C99.6481 20.1162 99.8031 20.0542 99.9315 19.9347C100.06 19.8152 100.126 19.6559 100.126 19.4656V7.1657C100.126 6.97538 100.06 6.81604 99.9315 6.69654C99.7986 6.57261 99.6481 6.51508 99.4754 6.51508H96.3891C96.1987 6.51508 96.0393 6.57704 95.9197 6.69654C95.7957 6.82047 95.7382 6.97538 95.7382 7.1657V19.4567C95.7382 19.647 95.8001 19.8064 95.9197 19.9259C96.0437 20.0498 96.1987 20.1073 96.3891 20.1073H99.4754V20.1162ZM107.809 20.1295C108.323 19.9657 108.774 19.74 109.155 19.4611C109.54 19.1823 109.846 18.8769 110.072 18.545V19.4611C110.072 19.6515 110.134 19.8108 110.253 19.9303C110.373 20.0542 110.532 20.1118 110.723 20.1118H113.756C113.928 20.1118 114.083 20.0498 114.212 19.9303C114.345 19.8108 114.407 19.6515 114.407 19.4611V11.5076C114.407 10.7419 114.283 10.0382 114.039 9.40083C113.796 8.76348 113.424 8.21023 112.928 7.74108C112.432 7.27192 111.781 6.90456 110.979 6.64343C110.178 6.3823 109.208 6.24952 108.075 6.24952C106.941 6.24952 106.069 6.37787 105.303 6.64343C104.537 6.90456 103.908 7.23651 103.421 7.63928C102.934 8.04205 102.571 8.44481 102.336 8.85643C102.101 9.26805 101.982 9.62656 101.982 9.9408C101.964 10.0957 102.008 10.2329 102.115 10.348C102.221 10.4631 102.367 10.5162 102.557 10.5162H105.489C105.768 10.5162 105.985 10.4011 106.144 10.1754C106.317 9.84343 106.56 9.5823 106.861 9.39198C107.167 9.20166 107.565 9.10429 108.052 9.10429C108.752 9.10429 109.23 9.27248 109.492 9.6C109.753 9.93195 109.886 10.41 109.886 11.0385V11.4058L106.613 11.9015C104.94 12.1627 103.593 12.6584 102.584 13.3798C101.57 14.1057 101.065 15.0838 101.065 16.3231C101.065 17.0888 101.282 17.7793 101.72 18.39C102.154 19.0008 102.743 19.4833 103.487 19.8418C104.227 20.2003 105.072 20.3773 106.011 20.3773C106.693 20.3773 107.286 20.2932 107.805 20.1295H107.809ZM106.303 17.226C106.024 17.1154 105.799 16.9516 105.621 16.7436C105.449 16.5355 105.36 16.2833 105.36 15.9867C105.36 15.6017 105.546 15.2697 105.923 14.9776C106.299 14.6899 106.897 14.4775 107.716 14.3358L109.939 13.9419V14.3093C109.939 15.0086 109.819 15.5884 109.585 16.0487C109.35 16.509 109.027 16.8498 108.615 17.0667C108.203 17.2835 107.747 17.3942 107.242 17.3942C106.892 17.3942 106.578 17.3367 106.299 17.226H106.303ZM119.202 20.1162C119.393 20.1162 119.552 20.0542 119.672 19.9347C119.796 19.8152 119.853 19.6559 119.853 19.4656V2.19972C119.853 2.00941 119.791 1.85007 119.672 1.73057C119.548 1.61107 119.393 1.5491 119.202 1.5491H116.116C115.925 1.5491 115.766 1.61107 115.647 1.73057C115.527 1.85007 115.465 2.00941 115.465 2.19972V19.4611C115.465 19.6515 115.527 19.8108 115.647 19.9303C115.766 20.0542 115.925 20.1118 116.116 20.1118H119.202V20.1162ZM60.8277 41.8257C62.0144 41.3743 62.9443 40.7148 63.6129 39.8517C64.2815 38.9887 64.6225 37.9663 64.6225 36.7801C64.6225 35.7178 64.3967 34.8326 63.9406 34.1245C63.4845 33.4163 62.7716 32.8409 61.793 32.3983C60.8144 31.9557 59.5347 31.584 57.945 31.2874C56.9842 31.0794 56.2314 30.8758 55.6823 30.6855C55.1332 30.4952 54.7391 30.265 54.5045 30.0039C54.2698 29.7427 54.1502 29.4373 54.1502 29.0877C54.1502 28.53 54.3628 28.114 54.7923 27.844C55.2174 27.574 55.8152 27.4368 56.5856 27.4368C57.303 27.4368 57.8786 27.5828 58.3258 27.8705C58.7731 28.1582 59.0432 28.4946 59.1495 28.8797C59.2557 29.0346 59.3753 29.1497 59.517 29.2205C59.6587 29.2913 59.8225 29.3267 60.0129 29.3267H63.4668C63.6217 29.3267 63.7546 29.2692 63.8609 29.1585C63.9671 29.0434 64.0158 28.9195 64.0158 28.7779C63.9981 28.2202 63.8299 27.6492 63.5066 27.065C63.1834 26.4808 62.7096 25.9275 62.0808 25.4053C61.452 24.883 60.6815 24.4625 59.7649 24.1483C58.8483 23.834 57.7901 23.6791 56.5856 23.6791C55.1022 23.6791 53.8225 23.9137 52.7377 24.3873C51.6572 24.8564 50.8159 25.5115 50.2137 26.348C49.6115 27.1845 49.3104 28.1361 49.3104 29.1983C49.3104 30.2606 49.5539 31.1812 50.041 31.9071C50.5281 32.6285 51.241 33.2127 52.1753 33.6598C53.1096 34.1024 54.2388 34.4653 55.5628 34.7441C56.5901 34.9521 57.4181 35.1602 58.0336 35.3593C58.6535 35.5585 59.1007 35.7887 59.3797 36.0409C59.6587 36.2932 59.8004 36.6119 59.8004 36.997C59.8004 37.5369 59.5435 37.9663 59.0299 38.2805C58.5162 38.5947 57.7502 38.7497 56.7406 38.7497C56.1295 38.7497 55.6203 38.6744 55.2085 38.5284C54.7967 38.3823 54.469 38.1831 54.2122 37.9397C53.9598 37.6963 53.765 37.444 53.6233 37.1828C53.517 37.0412 53.4019 36.9306 53.269 36.842C53.1406 36.7535 52.9502 36.7137 52.7067 36.7137H49.4078C49.2528 36.7137 49.1156 36.7712 49.0004 36.8819C48.8853 36.9925 48.8322 37.1209 48.8322 37.2625C48.8676 38.1698 49.182 39.0241 49.7753 39.8252C50.3687 40.6263 51.241 41.2769 52.3923 41.7726C53.5436 42.2683 54.9915 42.5162 56.7362 42.5162C58.2727 42.5162 59.6321 42.2905 60.8188 41.8346L60.8277 41.8257ZM71.8446 42.2462C72.0881 42.2462 72.2785 42.1842 72.4202 42.0647C72.5575 41.9452 72.6549 41.7859 72.708 41.5956L75.1169 34.4299L77.5257 41.5956C77.5789 41.7859 77.6718 41.9452 77.8135 42.0647C77.9552 42.1887 78.1456 42.2462 78.3892 42.2462H80.7449C81.0061 42.2462 81.201 42.1842 81.3338 42.0647C81.4667 41.9452 81.5552 41.7859 81.6084 41.5956L85.3766 29.486C85.3943 29.3975 85.4032 29.3134 85.4032 29.2249C85.4032 29.07 85.3456 28.9328 85.2349 28.8177C85.1198 28.7026 84.9869 28.6495 84.8275 28.6495H82.1309C81.905 28.6495 81.7235 28.7115 81.5951 28.831C81.4667 28.9549 81.3825 29.0744 81.3471 29.1983L79.1508 36.6783L76.7951 29.2249C76.7597 29.1054 76.6755 28.977 76.5471 28.8443C76.4187 28.7115 76.2283 28.6495 75.9848 28.6495H74.2578C74.0143 28.6495 73.8239 28.7159 73.6955 28.8443C73.5626 28.9726 73.4829 29.101 73.4475 29.2249L71.0918 36.6783L68.8955 29.1983C68.8601 29.0744 68.776 28.9549 68.6476 28.831C68.5191 28.7071 68.3376 28.6495 68.1118 28.6495H65.4151C65.2601 28.6495 65.1184 28.7071 64.9944 28.8177C64.8705 28.9328 64.8129 29.0656 64.8129 29.2249C64.8129 29.3134 64.8306 29.3975 64.866 29.486L68.6343 41.5956C68.7051 41.7859 68.7981 41.9452 68.9221 42.0647C69.0461 42.1887 69.2365 42.2462 69.4977 42.2462H71.8534H71.8446ZM90.1101 26.6844C90.3006 26.6844 90.4644 26.6224 90.5928 26.5029C90.7212 26.379 90.7876 26.2241 90.7876 26.0337V23.7057C90.7876 23.5154 90.7212 23.3516 90.5928 23.2232C90.4644 23.0949 90.3006 23.0285 90.1101 23.0285H86.9973C86.8068 23.0285 86.6474 23.0949 86.5279 23.2232C86.4039 23.3516 86.3463 23.5154 86.3463 23.7057V26.0337C86.3463 26.2241 86.4083 26.3834 86.5279 26.5029C86.6519 26.6268 86.8068 26.6844 86.9973 26.6844H90.1101ZM90.1101 42.2462C90.2828 42.2462 90.4378 42.1842 90.5662 42.0647C90.6991 41.9452 90.7611 41.7859 90.7611 41.5956V29.3046C90.7611 29.1142 90.6946 28.9549 90.5662 28.8354C90.4378 28.7159 90.2828 28.6539 90.1101 28.6539H87.0238C86.8334 28.6539 86.674 28.7159 86.5545 28.8354C86.4305 28.9593 86.3729 29.1142 86.3729 29.3046V41.5956C86.3729 41.7859 86.4349 41.9452 86.5545 42.0647C86.674 42.1887 86.8334 42.2462 87.0238 42.2462H90.1101ZM95.8931 42.2462C96.0658 42.2462 96.2208 42.1842 96.3492 42.0647C96.4821 41.9452 96.5441 41.7859 96.5441 41.5956V34.4564C96.5441 33.6376 96.7566 33.0047 97.1861 32.5577C97.6156 32.1151 98.1824 31.8894 98.8998 31.8894C99.6658 31.8894 100.246 32.1106 100.64 32.5577C101.034 33.0003 101.229 33.6332 101.229 34.4564V41.5956C101.229 41.7859 101.295 41.9452 101.424 42.0647C101.557 42.1887 101.707 42.2462 101.88 42.2462H105.179C105.351 42.2462 105.506 42.1842 105.635 42.0647C105.763 41.9452 105.83 41.7859 105.83 41.5956V34.2971C105.83 33.0224 105.608 31.9469 105.161 31.0661C104.718 30.1853 104.107 29.517 103.328 29.0656C102.553 28.6141 101.658 28.384 100.644 28.384C99.6304 28.384 98.7846 28.5654 98.054 28.9328C97.319 29.3001 96.7256 29.7516 96.2739 30.2916V29.2957C96.2739 29.1054 96.212 28.9461 96.0924 28.8266C95.9728 28.7071 95.8134 28.6451 95.623 28.6451H92.612C92.4216 28.6451 92.2622 28.7071 92.1426 28.8266C92.0186 28.9505 91.9611 29.1054 91.9611 29.2957V41.5867C91.9611 41.777 92.023 41.9364 92.1426 42.0559C92.2666 42.1798 92.4216 42.2373 92.612 42.2373H95.8843L95.8931 42.2462ZM117.874 47.2963C118.888 46.8271 119.663 46.1367 120.203 45.2293C120.743 44.322 121.013 43.2066 121.013 41.8833V29.3046C121.013 29.132 120.947 28.977 120.818 28.8487C120.686 28.7159 120.526 28.6539 120.336 28.6539H117.325C117.134 28.6539 116.975 28.7203 116.855 28.8487C116.731 28.977 116.674 29.132 116.674 29.3046V30.2739C116.235 29.7339 115.682 29.2824 115.013 28.9284C114.34 28.5698 113.534 28.3928 112.591 28.3928C111.701 28.3928 110.917 28.5389 110.235 28.8221C109.554 29.1098 108.982 29.5259 108.522 30.0658C108.061 30.6058 107.707 31.252 107.464 32C107.22 32.748 107.069 33.5978 107.021 34.5361C107.003 34.992 107.003 35.4434 107.021 35.8949C107.074 36.873 107.224 37.7361 107.477 38.4841C107.729 39.2321 108.083 39.8694 108.535 40.3917C108.987 40.914 109.554 41.3079 110.235 41.569C110.917 41.8302 111.701 41.9629 112.591 41.9629C113.481 41.9629 114.238 41.8302 114.867 41.5557C115.496 41.2858 116.01 40.9317 116.413 40.4979V42.2506C116.413 42.8791 116.324 43.3793 116.151 43.7555C115.979 44.1317 115.713 44.4017 115.368 44.5654C115.018 44.7292 114.584 44.8133 114.061 44.8133C113.592 44.8133 113.22 44.7469 112.95 44.6185C112.68 44.4902 112.472 44.3176 112.321 44.1095C112.175 43.9015 112.055 43.6979 111.967 43.5076C111.896 43.3173 111.803 43.1801 111.692 43.1004C111.577 43.0207 111.444 42.9809 111.285 42.9809H107.964C107.774 42.9809 107.605 43.0429 107.468 43.1624C107.326 43.2863 107.269 43.4412 107.286 43.6315C107.304 43.9104 107.428 44.291 107.654 44.769C107.88 45.247 108.252 45.7339 108.765 46.2207C109.279 46.7076 109.979 47.1281 110.86 47.4777C111.741 47.8274 112.852 48 114.194 48C115.642 48 116.873 47.7654 117.883 47.2918L117.874 47.2963ZM112.627 38.1964C112.286 37.953 112.042 37.621 111.896 37.2006C111.745 36.7801 111.657 36.3198 111.621 35.8152C111.604 35.4124 111.604 35.023 111.621 34.6379C111.657 34.1333 111.75 33.6686 111.896 33.2526C112.042 32.8321 112.29 32.5046 112.627 32.2567C112.963 32.0089 113.424 31.8894 113.999 31.8894C114.575 31.8894 115.009 32.0089 115.359 32.2434C115.709 32.478 115.965 32.7878 116.129 33.1729C116.293 33.558 116.386 33.974 116.404 34.4299C116.421 34.6025 116.43 34.868 116.43 35.2133C116.43 35.5585 116.421 35.8329 116.404 36.0232C116.386 36.4614 116.293 36.8686 116.129 37.2537C115.965 37.6387 115.704 37.953 115.359 38.1964C115.013 38.4398 114.557 38.5638 113.999 38.5638C113.441 38.5638 112.968 38.4398 112.627 38.1964Z" fill="#4E2583"/>
</g>
<path d="M12.1 64C12.0333 64 11.9767 63.98 11.93 63.94C11.89 63.8933 11.87 63.8367 11.87 63.77V57.24C11.87 57.1667 11.89 57.11 11.93 57.07C11.9767 57.0233 12.0333 57 12.1 57H12.6C12.68 57 12.74 57.02 12.78 57.06C12.82 57.1 12.8433 57.1333 12.85 57.16L14.97 61.2L17.1 57.16C17.1133 57.1333 17.1367 57.1 17.17 57.06C17.21 57.02 17.27 57 17.35 57H17.84C17.9133 57 17.97 57.0233 18.01 57.07C18.0567 57.11 18.08 57.1667 18.08 57.24V63.77C18.08 63.8367 18.0567 63.8933 18.01 63.94C17.97 63.98 17.9133 64 17.84 64H17.35C17.2833 64 17.2267 63.98 17.18 63.94C17.14 63.8933 17.12 63.8367 17.12 63.77V58.85L15.45 62.11C15.4233 62.1767 15.3833 62.23 15.33 62.27C15.2767 62.3033 15.21 62.32 15.13 62.32H14.82C14.7333 62.32 14.6633 62.3033 14.61 62.27C14.5633 62.23 14.5233 62.1767 14.49 62.11L12.82 58.85V63.77C12.82 63.8367 12.7967 63.8933 12.75 63.94C12.71 63.98 12.6567 64 12.59 64H12.1ZM29.6395 64C29.5861 64 29.5395 63.98 29.4995 63.94C29.4595 63.9 29.4395 63.8533 29.4395 63.8C29.4395 63.7667 29.4428 63.73 29.4495 63.69L31.9295 57.22C31.9561 57.1533 31.9928 57.1 32.0395 57.06C32.0861 57.02 32.1561 57 32.2495 57H32.9295C33.0161 57 33.0828 57.02 33.1295 57.06C33.1828 57.1 33.2228 57.1533 33.2495 57.22L35.7195 63.69C35.7328 63.73 35.7395 63.7667 35.7395 63.8C35.7395 63.8533 35.7195 63.9 35.6795 63.94C35.6395 63.98 35.5928 64 35.5395 64H35.0295C34.9495 64 34.8895 63.98 34.8495 63.94C34.8161 63.9 34.7928 63.8633 34.7795 63.83L34.2295 62.41H30.9495L30.3995 63.83C30.3928 63.8633 30.3695 63.9 30.3295 63.94C30.2895 63.98 30.2295 64 30.1495 64H29.6395ZM31.2395 61.55H33.9395L32.5895 58L31.2395 61.55ZM47.3387 64C47.2653 64 47.2087 63.98 47.1687 63.94C47.1287 63.8933 47.1087 63.8367 47.1087 63.77V57.24C47.1087 57.1667 47.1287 57.11 47.1687 57.07C47.2087 57.0233 47.2653 57 47.3387 57H47.7987C47.8787 57 47.9387 57.02 47.9787 57.06C48.0187 57.0933 48.042 57.12 48.0487 57.14L51.3687 62.24V57.24C51.3687 57.1667 51.3887 57.11 51.4287 57.07C51.4687 57.0233 51.5253 57 51.5987 57H52.0787C52.152 57 52.2087 57.0233 52.2487 57.07C52.2953 57.11 52.3187 57.1667 52.3187 57.24V63.76C52.3187 63.8267 52.2953 63.8833 52.2487 63.93C52.2087 63.9767 52.1553 64 52.0887 64H51.6087C51.5353 64 51.4787 63.98 51.4387 63.94C51.4053 63.9 51.382 63.8733 51.3687 63.86L48.0587 58.81V63.77C48.0587 63.8367 48.0353 63.8933 47.9887 63.94C47.9487 63.98 47.892 64 47.8187 64H47.3387ZM63.882 64C63.8287 64 63.782 63.98 63.742 63.94C63.702 63.9 63.682 63.8533 63.682 63.8C63.682 63.7667 63.6854 63.73 63.692 63.69L66.172 57.22C66.1987 57.1533 66.2354 57.1 66.282 57.06C66.3287 57.02 66.3987 57 66.492 57H67.172C67.2587 57 67.3254 57.02 67.372 57.06C67.4254 57.1 67.4654 57.1533 67.492 57.22L69.962 63.69C69.9754 63.73 69.982 63.7667 69.982 63.8C69.982 63.8533 69.962 63.9 69.922 63.94C69.882 63.98 69.8354 64 69.782 64H69.272C69.192 64 69.132 63.98 69.092 63.94C69.0587 63.9 69.0354 63.8633 69.022 63.83L68.472 62.41H65.192L64.642 63.83C64.6354 63.8633 64.612 63.9 64.572 63.94C64.532 63.98 64.472 64 64.392 64H63.882ZM65.482 61.55H68.182L66.832 58L65.482 61.55ZM83.7643 64.1C83.1776 64.1 82.6776 63.99 82.2643 63.77C81.8576 63.55 81.5443 63.24 81.3243 62.84C81.111 62.44 80.991 61.97 80.9643 61.43C80.9576 61.1367 80.9543 60.8267 80.9543 60.5C80.9543 60.1667 80.9576 59.85 80.9643 59.55C80.991 59.01 81.111 58.5433 81.3243 58.15C81.5443 57.7567 81.861 57.45 82.2743 57.23C82.6876 57.01 83.1843 56.9 83.7643 56.9C84.2376 56.9 84.6476 56.9667 84.9943 57.1C85.341 57.2333 85.6243 57.4033 85.8443 57.61C86.071 57.81 86.2376 58.02 86.3443 58.24C86.4576 58.46 86.5176 58.6533 86.5243 58.82C86.531 58.88 86.5143 58.93 86.4743 58.97C86.4343 59.0033 86.381 59.02 86.3143 59.02H85.7243C85.6576 59.02 85.6076 59.0067 85.5743 58.98C85.5476 58.9533 85.521 58.9067 85.4943 58.84C85.4343 58.6667 85.3343 58.4967 85.1943 58.33C85.061 58.1633 84.8776 58.0267 84.6443 57.92C84.4176 57.8067 84.1243 57.75 83.7643 57.75C83.2376 57.75 82.811 57.8933 82.4843 58.18C82.1643 58.4667 81.991 58.94 81.9643 59.6C81.9443 60.1933 81.9443 60.7867 81.9643 61.38C81.991 62.0467 82.1676 62.5267 82.4943 62.82C82.821 63.1067 83.2476 63.25 83.7743 63.25C84.1276 63.25 84.441 63.1867 84.7143 63.06C84.9943 62.9267 85.2143 62.7233 85.3743 62.45C85.5343 62.1767 85.6143 61.83 85.6143 61.41V60.99H84.1143C84.0476 60.99 83.991 60.97 83.9443 60.93C83.9043 60.8833 83.8843 60.8233 83.8843 60.75V60.43C83.8843 60.3567 83.9043 60.3 83.9443 60.26C83.991 60.2133 84.0476 60.19 84.1143 60.19H86.3743C86.4476 60.19 86.5043 60.2133 86.5443 60.26C86.5843 60.3 86.6043 60.3567 86.6043 60.43V61.39C86.6043 61.9367 86.491 62.4133 86.2643 62.82C86.0443 63.2267 85.721 63.5433 85.2943 63.77C84.8676 63.99 84.3576 64.1 83.7643 64.1ZM98.5609 64C98.4876 64 98.4309 63.98 98.3909 63.94C98.3509 63.8933 98.3309 63.8367 98.3309 63.77V57.24C98.3309 57.1667 98.3509 57.11 98.3909 57.07C98.4309 57.0233 98.4876 57 98.5609 57H102.691C102.764 57 102.821 57.0233 102.861 57.07C102.901 57.11 102.921 57.1667 102.921 57.24V57.62C102.921 57.6933 102.901 57.75 102.861 57.79C102.821 57.83 102.764 57.85 102.691 57.85H99.2909V60.04H102.471C102.544 60.04 102.601 60.0633 102.641 60.11C102.681 60.15 102.701 60.2067 102.701 60.28V60.65C102.701 60.7167 102.681 60.7733 102.641 60.82C102.601 60.86 102.544 60.88 102.471 60.88H99.2909V63.15H102.771C102.844 63.15 102.901 63.17 102.941 63.21C102.981 63.25 103.001 63.3067 103.001 63.38V63.77C103.001 63.8367 102.981 63.8933 102.941 63.94C102.901 63.98 102.844 64 102.771 64H98.5609ZM114.925 64C114.852 64 114.795 63.98 114.755 63.94C114.715 63.8933 114.695 63.8367 114.695 63.77V57.24C114.695 57.1667 114.715 57.11 114.755 57.07C114.795 57.0233 114.852 57 114.925 57H117.365C118.119 57 118.715 57.1767 119.155 57.53C119.595 57.8833 119.815 58.4067 119.815 59.1C119.815 59.6133 119.685 60.0333 119.425 60.36C119.172 60.68 118.825 60.9033 118.385 61.03L119.925 63.69C119.945 63.73 119.955 63.7667 119.955 63.8C119.955 63.8533 119.932 63.9 119.885 63.94C119.845 63.98 119.799 64 119.745 64H119.265C119.152 64 119.069 63.97 119.015 63.91C118.962 63.85 118.915 63.79 118.875 63.73L117.425 61.19H115.675V63.77C115.675 63.8367 115.652 63.8933 115.605 63.94C115.565 63.98 115.509 64 115.435 64H114.925ZM115.675 60.34H117.325C117.825 60.34 118.199 60.2367 118.445 60.03C118.692 59.8167 118.815 59.5033 118.815 59.09C118.815 58.6833 118.692 58.3733 118.445 58.16C118.205 57.9467 117.832 57.84 117.325 57.84H115.675V60.34Z" fill="#4E2583"/>
<defs>
<clipPath id="clip0_29_31">
<rect width="121" height="48" fill="white"/>
</clipPath>
</defs>
</svg>
